<svg id="map-marker-alt" xmlns="http://www.w3.org/2000/svg" xmlns:xlink="http://www.w3.org/1999/xlink" width="21.75" height="29" viewBox="0 0 21.75 29">
  <defs>
    <clipPath id="clip-path">
      <rect id="Background" width="21.75" height="29" fill="none"/>
    </clipPath>
  </defs>
  <rect id="Background-2" data-name="Background" width="21.75" height="29" fill="none"/>
  <g id="map-marker-alt-2" data-name="map-marker-alt" clip-path="url(#clip-path)">
    <path id="Shape" d="M10.875,29a1.341,1.341,0,0,1-1.117-.585c-1.465-2.124-2.7-3.882-3.788-5.432C1.028,15.942,0,14.478,0,10.875a10.875,10.875,0,0,1,21.75,0c0,3.6-1.027,5.066-5.964,12.1-1.091,1.554-2.326,3.314-3.794,5.442A1.341,1.341,0,0,1,10.875,29Zm0-22.656a4.531,4.531,0,1,0,4.531,4.531A4.536,4.536,0,0,0,10.875,6.344Z"/>
  </g>
</svg>
